<svg width="135" height="15" viewBox="0 0 135 15" fill="none" xmlns="http://www.w3.org/2000/svg">
<path opacity="0.7" d="M0.463 0.472H5.441C7.65767 0.472 9.374 1.061 10.59 2.239C11.8187 3.417 12.433 5.07633 12.433 7.217C12.433 9.37033 11.8187 11.0423 10.59 12.233C9.374 13.411 7.65767 14 5.441 14H0.463V0.472ZM5.289 12.005C8.405 12.005 9.963 10.409 9.963 7.217C9.963 4.05033 8.405 2.467 5.289 2.467H2.914V12.005H5.289ZM24.3417 4.405V14H22.0047V12.461C21.7133 12.993 21.2953 13.411 20.7507 13.715C20.206 14.0063 19.5853 14.152 18.8887 14.152C18.0527 14.152 17.3117 13.9493 16.6657 13.544C16.0197 13.1387 15.5193 12.5623 15.1647 11.815C14.81 11.0677 14.6327 10.2 14.6327 9.212C14.6327 8.224 14.81 7.35 15.1647 6.59C15.532 5.81733 16.0387 5.222 16.6847 4.804C17.3307 4.37333 18.0653 4.158 18.8887 4.158C19.5853 4.158 20.206 4.31 20.7507 4.614C21.2953 4.90533 21.7133 5.317 22.0047 5.849V4.405H24.3417ZM19.5347 12.29C20.32 12.29 20.928 12.0177 21.3587 11.473C21.7893 10.9283 22.0047 10.162 22.0047 9.174C22.0047 8.16067 21.7893 7.38167 21.3587 6.837C20.928 6.29233 20.3137 6.02 19.5157 6.02C18.7303 6.02 18.116 6.305 17.6727 6.875C17.242 7.43233 17.0267 8.21133 17.0267 9.212C17.0267 10.2 17.242 10.96 17.6727 11.492C18.116 12.024 18.7367 12.29 19.5347 12.29ZM30.8433 14.152C29.108 14.152 27.7273 13.7467 26.7013 12.936L27.3663 11.264C28.3923 12.024 29.564 12.404 30.8813 12.404C31.4513 12.404 31.8883 12.309 32.1923 12.119C32.509 11.929 32.6673 11.663 32.6673 11.321C32.6673 11.0297 32.5597 10.8017 32.3443 10.637C32.129 10.4597 31.7617 10.3077 31.2423 10.181L29.6463 9.82C27.8983 9.44 27.0243 8.547 27.0243 7.141C27.0243 6.55833 27.189 6.04533 27.5183 5.602C27.8477 5.146 28.31 4.79133 28.9053 4.538C29.5007 4.28467 30.191 4.158 30.9763 4.158C31.6603 4.158 32.319 4.26567 32.9523 4.481C33.5857 4.68367 34.143 4.98133 34.6243 5.374L33.9213 6.989C32.9587 6.27967 31.9707 5.925 30.9573 5.925C30.4127 5.925 29.9883 6.02633 29.6843 6.229C29.3803 6.43167 29.2283 6.71033 29.2283 7.065C29.2283 7.34367 29.317 7.56533 29.4943 7.73C29.6843 7.89467 30.001 8.034 30.4443 8.148L32.0783 8.509C33.0283 8.72433 33.7187 9.06 34.1493 9.516C34.5927 9.95933 34.8143 10.542 34.8143 11.264C34.8143 12.1507 34.4597 12.8537 33.7503 13.373C33.041 13.8923 32.072 14.152 30.8433 14.152ZM42.7379 4.158C45.0306 4.158 46.1769 5.47533 46.1769 8.11V14H43.8019V8.224C43.8019 7.464 43.6562 6.913 43.3649 6.571C43.0736 6.21633 42.6239 6.039 42.0159 6.039C41.2939 6.039 40.7112 6.27333 40.2679 6.742C39.8246 7.198 39.6029 7.806 39.6029 8.566V14H37.2469V0.0159988H39.6029V5.792C39.9322 5.27267 40.3692 4.87367 40.9139 4.595C41.4586 4.30367 42.0666 4.158 42.7379 4.158ZM54.5671 4.158C55.4031 4.158 56.1378 4.367 56.7711 4.785C57.4171 5.19033 57.9175 5.76667 58.2721 6.514C58.6268 7.26133 58.8041 8.129 58.8041 9.117C58.8041 10.105 58.6205 10.9853 58.2531 11.758C57.8985 12.518 57.3981 13.107 56.7521 13.525C56.1188 13.943 55.3905 14.152 54.5671 14.152C53.8578 14.152 53.2245 14 52.6671 13.696C52.1225 13.392 51.7108 12.9677 51.4321 12.423V14H49.0951V0.0159988H51.4511V5.849C51.7425 5.317 52.1605 4.90533 52.7051 4.614C53.2498 4.31 53.8705 4.158 54.5671 4.158ZM53.9401 12.29C54.7255 12.29 55.3335 12.0113 55.7641 11.454C56.1948 10.8967 56.4101 10.1177 56.4101 9.117C56.4101 8.129 56.1948 7.369 55.7641 6.837C55.3335 6.29233 54.7191 6.02 53.9211 6.02C53.1231 6.02 52.5088 6.29233 52.0781 6.837C51.6475 7.38167 51.4321 8.15433 51.4321 9.155C51.4321 10.1683 51.6475 10.9473 52.0781 11.492C52.5088 12.024 53.1295 12.29 53.9401 12.29ZM65.6284 14.152C64.653 14.152 63.7917 13.9493 63.0444 13.544C62.3097 13.1387 61.7397 12.5623 61.3344 11.815C60.9417 11.055 60.7454 10.1683 60.7454 9.155C60.7454 8.14167 60.9417 7.26133 61.3344 6.514C61.7397 5.754 62.3097 5.17133 63.0444 4.766C63.7917 4.36067 64.653 4.158 65.6284 4.158C66.591 4.158 67.4397 4.36067 68.1744 4.766C68.909 5.17133 69.4727 5.754 69.8654 6.514C70.2707 7.26133 70.4734 8.14167 70.4734 9.155C70.4734 10.1683 70.2707 11.055 69.8654 11.815C69.4727 12.5623 68.909 13.1387 68.1744 13.544C67.4397 13.9493 66.591 14.152 65.6284 14.152ZM65.6094 12.29C66.42 12.29 67.0344 12.0303 67.4524 11.511C67.883 10.979 68.0984 10.1937 68.0984 9.155C68.0984 8.129 67.883 7.35 67.4524 6.818C67.0217 6.27333 66.4137 6.001 65.6284 6.001C64.8304 6.001 64.216 6.27333 63.7854 6.818C63.3547 7.35 63.1394 8.129 63.1394 9.155C63.1394 10.1937 63.3484 10.979 63.7664 11.511C64.197 12.0303 64.8114 12.29 65.6094 12.29ZM82.0985 4.405V14H79.7615V12.461C79.4702 12.993 79.0522 13.411 78.5075 13.715C77.9628 14.0063 77.3422 14.152 76.6455 14.152C75.8095 14.152 75.0685 13.9493 74.4225 13.544C73.7765 13.1387 73.2762 12.5623 72.9215 11.815C72.5668 11.0677 72.3895 10.2 72.3895 9.212C72.3895 8.224 72.5668 7.35 72.9215 6.59C73.2888 5.81733 73.7955 5.222 74.4415 4.804C75.0875 4.37333 75.8222 4.158 76.6455 4.158C77.3422 4.158 77.9628 4.31 78.5075 4.614C79.0522 4.90533 79.4702 5.317 79.7615 5.849V4.405H82.0985ZM77.2915 12.29C78.0768 12.29 78.6848 12.0177 79.1155 11.473C79.5462 10.9283 79.7615 10.162 79.7615 9.174C79.7615 8.16067 79.5462 7.38167 79.1155 6.837C78.6848 6.29233 78.0705 6.02 77.2725 6.02C76.4872 6.02 75.8728 6.305 75.4295 6.875C74.9988 7.43233 74.7835 8.21133 74.7835 9.212C74.7835 10.2 74.9988 10.96 75.4295 11.492C75.8728 12.024 76.4935 12.29 77.2915 12.29ZM90.2532 4.177C90.6205 4.177 90.9372 4.22767 91.2032 4.329L91.1842 6.495C90.7788 6.33033 90.3608 6.248 89.9302 6.248C89.1195 6.248 88.4988 6.48233 88.0682 6.951C87.6502 7.41967 87.4412 8.04033 87.4412 8.813V14H85.0852V7.122C85.0852 6.10867 85.0345 5.203 84.9332 4.405H87.1562L87.3462 6.096C87.5868 5.47533 87.9668 5.00033 88.4862 4.671C89.0055 4.34167 89.5945 4.177 90.2532 4.177ZM101.917 0.0159988V14H99.58V12.461C99.2887 12.993 98.8707 13.411 98.326 13.715C97.7814 14.0063 97.1607 14.152 96.464 14.152C95.6407 14.152 94.906 13.943 94.26 13.525C93.614 13.107 93.1074 12.518 92.74 11.758C92.3854 10.9853 92.208 10.105 92.208 9.117C92.208 8.129 92.3854 7.26133 92.74 6.514C93.0947 5.76667 93.595 5.19033 94.241 4.785C94.887 4.367 95.628 4.158 96.464 4.158C97.148 4.158 97.756 4.30367 98.288 4.595C98.8327 4.87367 99.2507 5.27267 99.542 5.792V0.0159988H101.917ZM97.091 12.29C97.8764 12.29 98.4844 12.0177 98.915 11.473C99.3584 10.9283 99.58 10.1557 99.58 9.155C99.58 8.15433 99.3647 7.38167 98.934 6.837C98.5034 6.29233 97.8954 6.02 97.11 6.02C96.312 6.02 95.6914 6.29233 95.248 6.837C94.8174 7.369 94.602 8.129 94.602 9.117C94.602 10.1177 94.8174 10.8967 95.248 11.454C95.6914 12.0113 96.3057 12.29 97.091 12.29ZM119.429 14L113.14 7.673V14H110.689V0.472H113.14V6.533L119.182 0.472H122.127L115.553 6.97L122.431 14H119.429ZM123.572 4.405H125.928V14H123.572V4.405ZM126.061 0.0539995V2.391H123.42V0.0539995H126.061ZM131.947 6.191V10.485C131.947 11.6123 132.473 12.176 133.524 12.176C133.815 12.176 134.132 12.1253 134.474 12.024V13.905C134.056 14.057 133.549 14.133 132.954 14.133C131.865 14.133 131.029 13.829 130.446 13.221C129.863 12.613 129.572 11.739 129.572 10.599V6.191H127.729V4.405H129.572V2.068L131.947 1.27V4.405H134.493V6.191H131.947Z" fill="#A4A6B3"/>
</svg>
